<svg width="256" height="256" viewBox="0 0 256 256" fill="none" xmlns="http://www.w3.org/2000/svg">
<path d="M230.4 0H25.6C11.4615 0 0 11.4615 0 25.6V230.4C0 244.538 11.4615 256 25.6 256H230.4C244.538 256 256 244.538 256 230.4V25.6C256 11.4615 244.538 0 230.4 0Z" fill="url(#paint0_linear)"/>
<path fill-rule="evenodd" clip-rule="evenodd" d="M128 82.1818C102.695 82.1818 82.1818 102.695 82.1818 128C82.1818 153.305 102.695 173.818 128 173.818C153.305 173.818 173.818 153.305 173.818 128C173.818 102.695 153.305 82.1818 128 82.1818ZM72 128C72 97.0721 97.0721 72 128 72C158.928 72 184 97.0721 184 128C184 158.928 158.928 184 128 184C97.0721 184 72 158.928 72 128Z" fill="white"/>
<path fill-rule="evenodd" clip-rule="evenodd" d="M137.214 103.229C139.649 101.823 142.762 102.657 144.168 105.092L173.39 155.696C174.796 158.131 173.962 161.244 171.527 162.65C169.092 164.056 165.979 163.222 164.573 160.787L135.351 110.184C133.945 107.749 134.779 104.635 137.214 103.229Z" fill="white"/>
<path fill-rule="evenodd" clip-rule="evenodd" d="M111.149 107.638C111.149 104.827 113.429 102.547 116.24 102.547H174.684C177.496 102.547 179.775 104.827 179.775 107.638C179.775 110.45 177.496 112.729 174.684 112.729H116.24C113.429 112.729 111.149 110.45 111.149 107.638Z" fill="white"/>
<path fill-rule="evenodd" clip-rule="evenodd" d="M136.248 72.9896C138.683 74.3957 139.517 77.5093 138.11 79.9441L108.889 130.548C107.483 132.983 104.369 133.817 101.934 132.411C99.4994 131.005 98.6654 127.891 100.071 125.456L129.293 74.8524C130.699 72.4176 133.813 71.5836 136.248 72.9896Z" fill="white"/>
<path fill-rule="evenodd" clip-rule="evenodd" d="M84.4728 93.3515C86.9076 91.9454 90.0212 92.7794 91.4273 95.2143L120.649 145.818C122.055 148.253 121.221 151.366 118.786 152.772C116.351 154.178 113.238 153.344 111.832 150.91L82.61 100.306C81.204 97.8711 82.038 94.7575 84.4728 93.3515Z" fill="white"/>
<path fill-rule="evenodd" clip-rule="evenodd" d="M76.2259 148.362C76.2259 145.55 78.5051 143.271 81.3168 143.271H139.76C142.572 143.271 144.851 145.55 144.851 148.362C144.851 151.173 142.572 153.453 139.76 153.453H81.3168C78.5051 153.453 76.2259 151.173 76.2259 148.362Z" fill="white"/>
<path fill-rule="evenodd" clip-rule="evenodd" d="M154.066 123.591C156.501 124.997 157.335 128.111 155.929 130.546L126.707 181.149C125.301 183.584 122.187 184.418 119.752 183.012C117.318 181.606 116.484 178.492 117.89 176.058L147.111 125.454C148.517 123.019 151.631 122.185 154.066 123.591Z" fill="white"/>
<path d="M45.4828 222C41.1916 222 37.9732 220.325 35.8276 216.976C33.682 213.765 32.6092 209.718 32.6092 204.833V154.588C32.6092 148.586 31.1073 144.05 28.1034 140.98C25.2069 137.77 21.5057 136.165 17 136.165V119.835C21.5057 119.835 25.2069 118.3 28.1034 115.229C31.1073 112.019 32.6092 107.414 32.6092 101.412V51.167C32.6092 46.2821 33.682 42.2346 35.8276 39.0245C37.9732 35.6748 41.1916 34 45.4828 34H59V47.1893H43.7126V99.5278C43.7126 106.088 42.2644 111.95 39.3678 117.114C36.5785 122.138 32.931 125.209 28.4253 126.325V129.675C32.931 130.791 36.5785 133.932 39.3678 139.096C42.2644 144.12 43.7126 149.912 43.7126 156.472V208.811H59V222H45.4828Z" fill="white"/>
<path d="M210.517 34C214.808 34 218.027 35.6748 220.172 39.0245C222.318 42.2346 223.391 46.2821 223.391 51.167V101.412C223.391 107.414 224.839 112.019 227.736 115.229C230.739 118.3 234.494 119.835 239 119.835V136.165C234.494 136.165 230.739 137.77 227.736 140.98C224.839 144.05 223.391 148.586 223.391 154.588V204.833C223.391 209.718 222.318 213.765 220.172 216.976C218.027 220.325 214.808 222 210.517 222H197V208.811H212.287V156.472C212.287 149.912 213.682 144.12 216.471 139.096C219.368 133.932 223.069 130.791 227.575 129.675V126.325C223.069 125.209 219.368 122.138 216.471 117.114C213.682 111.95 212.287 106.088 212.287 99.5278V47.1893H197V34H210.517Z" fill="white"/>
<defs>
<linearGradient id="paint0_linear" x1="200.533" y1="268.8" x2="81.0667" y2="-1.21646e-06" gradientUnits="userSpaceOnUse">
<stop stop-color="#3CC3CF"/>
<stop offset="1" stop-color="#B05BEF"/>
</linearGradient>
</defs>
</svg>
